<svg xmlns="http://www.w3.org/2000/svg">
  <g>
    <g>
      <path d="M233.1562 259.875 L205.0312 259.875 L205.0312 288 L176.9062 288 L176.9062 316.125 L24.1875 316.125 L24.1875 163.4062 L52.3125 163.4062 L52.3125 135.2812 L80.4375 135.2812 L80.4375 107.1562 L233.1562 107.1562 L233.1562 259.875 ZM226.125 252.8438 L226.125 114.1875 L87.4688 114.1875 L87.4688 135.2812 L205.0312 135.2812 L205.0312 252.8438 L226.125 252.8438 ZM198 280.9688 L198 142.3125 L59.3438 142.3125 L59.3438 163.4062 L176.9062 163.4062 L176.9062 280.9688 L198 280.9688 ZM169.875 309.0938 L169.875 170.4375 L31.2188 170.4375 L31.2188 309.0938 L169.875 309.0938 ZM149.2031 196.0312 L51.8906 196.0312 L51.8906 189 L149.2031 189 L149.2031 196.0312 ZM149.2031 227.5312 L51.8906 227.5312 L51.8906 220.5 L149.2031 220.5 L149.2031 227.5312 ZM149.2031 259.0312 L51.8906 259.0312 L51.8906 252 L149.2031 252 L149.2031 259.0312 ZM149.2031 290.5312 L51.8906 290.5312 L51.8906 283.5 L149.2031 283.5 L149.2031 290.5312 Z" />
    </g>
  </g>
</svg>
